# xmcd CD database file
#
# Track frame offsets:
#	150
#	20002
#	38649
#	50052
#	66876
#	76767
#	100469
#	131875
#	146656
#	171702
#	180777
#	191230
#	205319
#	214055
#	224328
#
# Disc length: 3095 seconds
#
# Revision: 0
# Processed by: cddbd v1.5.2PL0 Copyright (c) Steve Scherf et al.
# Submitted via: Feurio! 1.66 - http://www.feurio.com
#
DISCID=ea0c150f
DTITLE=J.J. Cale - Ebbets Field - The 1975 Broadcast
DYEAR=2014
DGENRE=Blues
TTITLE0=Loisiana Woman
TTITLE1=Lies
TTITLE2=Nowhere To Run
TTITLE3=Got My Mojo Working
TTITLE4=Call Me The Breeze
TTITLE5=Woman In Love
TTITLE6=Bringing It Back
TTITLE7=Magnolia
TTITLE8=After Midnight
TTITLE9=Shock Hop
TTITLE10=Sneaky
TTITLE11=Troubles, Troubles, Troubles
TTITLE12=Purple Onion
TTITLE13=Ain't That Lovin' You Baby
TTITLE14=She's My Desire
EXTD=
EXTT0=
EXTT1=
EXTT2=
EXTT3=
EXTT4=
EXTT5=
EXTT6=
EXTT7=
EXTT8=
EXTT9=
EXTT10=
EXTT11=
EXTT12=
EXTT13=
EXTT14=
PLAYORDER=
